<mxfile host="app.diagrams.net" modified="2022-07-14T09:34:51.754Z" agent="5.0 (Macintosh; Intel Mac OS X 10_15_7) AppleWebKit/537.36 (KHTML, like Gecko) Chrome/103.0.5060.114 Safari/537.36 Edg/103.0.1264.51" etag="wdJSAdSrV0gOM-gWHpQg" version="20.1.1" type="github">
  <diagram id="_-dkw3AsfV7SxBjuavR6" name="Page-1">
    <mxGraphModel dx="993" dy="801" grid="1" gridSize="10" guides="1" tooltips="1" connect="1" arrows="1" fold="1" page="1" pageScale="1" pageWidth="1169" pageHeight="827" math="0" shadow="0">
      <root>
        <mxCell id="0" />
        <mxCell id="1" parent="0" />
        <mxCell id="kM9c3XfcTf7oXuRK3fT3-24" value="" style="ellipse;whiteSpace=wrap;html=1;aspect=fixed;" vertex="1" parent="1">
          <mxGeometry x="170" y="500" width="440" height="440" as="geometry" />
        </mxCell>
        <mxCell id="kM9c3XfcTf7oXuRK3fT3-1" value="" style="shape=cylinder3;whiteSpace=wrap;html=1;boundedLbl=1;backgroundOutline=1;size=15;" vertex="1" parent="1">
          <mxGeometry x="140" y="340" width="160" height="60" as="geometry" />
        </mxCell>
        <mxCell id="kM9c3XfcTf7oXuRK3fT3-2" value="" style="shape=cylinder3;whiteSpace=wrap;html=1;boundedLbl=1;backgroundOutline=1;size=15;" vertex="1" parent="1">
          <mxGeometry x="140" y="300" width="160" height="60" as="geometry" />
        </mxCell>
        <mxCell id="kM9c3XfcTf7oXuRK3fT3-3" value="" style="shape=cylinder3;whiteSpace=wrap;html=1;boundedLbl=1;backgroundOutline=1;size=15;" vertex="1" parent="1">
          <mxGeometry x="140" y="260" width="160" height="60" as="geometry" />
        </mxCell>
        <mxCell id="kM9c3XfcTf7oXuRK3fT3-4" value="" style="shape=cylinder3;whiteSpace=wrap;html=1;boundedLbl=1;backgroundOutline=1;size=15;" vertex="1" parent="1">
          <mxGeometry x="140" y="220" width="160" height="60" as="geometry" />
        </mxCell>
        <mxCell id="kM9c3XfcTf7oXuRK3fT3-5" value="" style="shape=cylinder3;whiteSpace=wrap;html=1;boundedLbl=1;backgroundOutline=1;size=15;" vertex="1" parent="1">
          <mxGeometry x="440" y="340" width="160" height="60" as="geometry" />
        </mxCell>
        <mxCell id="kM9c3XfcTf7oXuRK3fT3-6" value="" style="shape=cylinder3;whiteSpace=wrap;html=1;boundedLbl=1;backgroundOutline=1;size=15;" vertex="1" parent="1">
          <mxGeometry x="440" y="300" width="160" height="60" as="geometry" />
        </mxCell>
        <mxCell id="kM9c3XfcTf7oXuRK3fT3-7" value="" style="shape=cylinder3;whiteSpace=wrap;html=1;boundedLbl=1;backgroundOutline=1;size=15;" vertex="1" parent="1">
          <mxGeometry x="440" y="260" width="160" height="60" as="geometry" />
        </mxCell>
        <mxCell id="kM9c3XfcTf7oXuRK3fT3-8" value="" style="shape=cylinder3;whiteSpace=wrap;html=1;boundedLbl=1;backgroundOutline=1;size=15;" vertex="1" parent="1">
          <mxGeometry x="440" y="220" width="160" height="60" as="geometry" />
        </mxCell>
        <mxCell id="kM9c3XfcTf7oXuRK3fT3-9" value="" style="shape=flexArrow;endArrow=classic;html=1;rounded=0;" edge="1" parent="1">
          <mxGeometry width="50" height="50" relative="1" as="geometry">
            <mxPoint x="310" y="200" as="sourcePoint" />
            <mxPoint x="430" y="200" as="targetPoint" />
            <Array as="points">
              <mxPoint x="310" y="410" />
              <mxPoint x="430" y="410" />
            </Array>
          </mxGeometry>
        </mxCell>
        <mxCell id="kM9c3XfcTf7oXuRK3fT3-10" value="Application Layer" style="text;html=1;strokeColor=none;fillColor=none;align=center;verticalAlign=middle;whiteSpace=wrap;rounded=0;" vertex="1" parent="1">
          <mxGeometry x="455" y="250" width="130" height="30" as="geometry" />
        </mxCell>
        <mxCell id="kM9c3XfcTf7oXuRK3fT3-11" value="Transport Layer" style="text;html=1;strokeColor=none;fillColor=none;align=center;verticalAlign=middle;whiteSpace=wrap;rounded=0;" vertex="1" parent="1">
          <mxGeometry x="455" y="290" width="130" height="30" as="geometry" />
        </mxCell>
        <mxCell id="kM9c3XfcTf7oXuRK3fT3-14" value="Internet Layer" style="text;html=1;strokeColor=none;fillColor=none;align=center;verticalAlign=middle;whiteSpace=wrap;rounded=0;" vertex="1" parent="1">
          <mxGeometry x="455" y="330" width="130" height="30" as="geometry" />
        </mxCell>
        <mxCell id="kM9c3XfcTf7oXuRK3fT3-15" value="Network Access Layer" style="text;html=1;strokeColor=none;fillColor=none;align=center;verticalAlign=middle;whiteSpace=wrap;rounded=0;" vertex="1" parent="1">
          <mxGeometry x="455" y="370" width="130" height="30" as="geometry" />
        </mxCell>
        <mxCell id="kM9c3XfcTf7oXuRK3fT3-16" value="Application Layer" style="text;html=1;strokeColor=none;fillColor=none;align=center;verticalAlign=middle;whiteSpace=wrap;rounded=0;" vertex="1" parent="1">
          <mxGeometry x="155" y="250" width="130" height="30" as="geometry" />
        </mxCell>
        <mxCell id="kM9c3XfcTf7oXuRK3fT3-17" value="Transport Layer" style="text;html=1;strokeColor=none;fillColor=none;align=center;verticalAlign=middle;whiteSpace=wrap;rounded=0;" vertex="1" parent="1">
          <mxGeometry x="155" y="290" width="130" height="30" as="geometry" />
        </mxCell>
        <mxCell id="kM9c3XfcTf7oXuRK3fT3-18" value="Internet Layer" style="text;html=1;strokeColor=none;fillColor=none;align=center;verticalAlign=middle;whiteSpace=wrap;rounded=0;" vertex="1" parent="1">
          <mxGeometry x="155" y="330" width="130" height="30" as="geometry" />
        </mxCell>
        <mxCell id="kM9c3XfcTf7oXuRK3fT3-19" value="Network Access Layer" style="text;html=1;strokeColor=none;fillColor=none;align=center;verticalAlign=middle;whiteSpace=wrap;rounded=0;" vertex="1" parent="1">
          <mxGeometry x="155" y="370" width="130" height="30" as="geometry" />
        </mxCell>
        <mxCell id="kM9c3XfcTf7oXuRK3fT3-20" value="SENDER" style="shape=umlActor;verticalLabelPosition=bottom;verticalAlign=top;html=1;outlineConnect=0;" vertex="1" parent="1">
          <mxGeometry x="205" y="120" width="30" height="60" as="geometry" />
        </mxCell>
        <mxCell id="kM9c3XfcTf7oXuRK3fT3-21" value="RECEIVER" style="shape=umlActor;verticalLabelPosition=bottom;verticalAlign=top;html=1;outlineConnect=0;" vertex="1" parent="1">
          <mxGeometry x="505" y="120" width="30" height="60" as="geometry" />
        </mxCell>
        <mxCell id="kM9c3XfcTf7oXuRK3fT3-22" value="" style="shape=image;verticalLabelPosition=bottom;labelBackgroundColor=default;verticalAlign=top;aspect=fixed;imageAspect=0;image=data:image/svg+xml,PHN2ZyB4bWxuczp4bGluaz0iaHR0cDovL3d3dy53My5vcmcvMTk5OS94bGluayIgeG1sbnM9Imh0dHA6Ly93d3cudzMub3JnLzIwMDAvc3ZnIiB4bWw6c3BhY2U9InByZXNlcnZlIiBzdHlsZT0iZW5hYmxlLWJhY2tncm91bmQ6bmV3IDAgMCAzNzcuMjA4IDM3Ny4yMDg7IiB2aWV3Qm94PSIwIDAgMzc3LjIwOCAzNzcuMjA4IiB5PSIwcHgiIHg9IjBweCIgaWQ9IkNhcGFfMSIgdmVyc2lvbj0iMS4xIj4mI3hhOzxnPiYjeGE7CTxnPiYjeGE7CQk8Zz4mI3hhOwkJCTxnPiYjeGE7CQkJCTxnPiYjeGE7CQkJCQk8cGF0aCBkPSJNMjcxLjcyNiwyMjAuMTlINDAuNjUyYy00LjE0MywwLTcuNS0zLjM1Ny03LjUtNy41VjU4LjY4MmMwLTQuMTQzLDMuMzU3LTcuNSw3LjUtNy41aDIzMS4wNzQmIzEwOyYjOTsmIzk7JiM5OyYjOTsmIzk7JiM5O2M0LjE0MywwLDcuNSwzLjM1Nyw3LjUsNy41VjIxMi42OUMyNzkuMjI2LDIxNi44MzMsMjc1Ljg2OCwyMjAuMTksMjcxLjcyNiwyMjAuMTl6IE00OC4xNTIsMjA1LjE5aDIxNi4wNzRWNjYuMTgySDQ4LjE1MiYjMTA7JiM5OyYjOTsmIzk7JiM5OyYjOTsmIzk7VjIwNS4xOXoiLz4mI3hhOwkJCQk8L2c+JiN4YTsJCQkJPHBhdGggZD0iTTI5NS43MzgsMjcuOTI2SDE2LjY0Yy00LjE0MywwLTcuNSwzLjM1Ny03LjUsNy41djIyNi4xMDJjMCw0LjE0MiwzLjM1Nyw3LjUsNy41LDcuNWg5OS45NjEmIzEwOyYjOTsmIzk7JiM5OyYjOTsmIzk7Yy0zLjY5MSw3Ljk0NS0xMC41MTgsMTguNzg0LTIxLjY2NCwyMy41NjFjLTMuMjczLDEuNDAyLTUuMTA5LDQuOTEzLTQuMzkzLDguNDAxYzAuNzE1LDMuNDg4LDMuNzg1LDUuOTkyLDcuMzQ2LDUuOTkyaDExNi41OTYmIzEwOyYjOTsmIzk7JiM5OyYjOTsmIzk7YzMuNTYxLDAsNi42MzEtMi41MDQsNy4zNDgtNS45OTJjMC43MTUtMy40ODgtMS4xMTktNi45OTktNC4zOTMtOC40MDFjLTExLjA2NC00Ljc0Mi0xNy45MTQtMTUuNjAyLTIxLjYzMy0yMy41NjFoOTkuOTMmIzEwOyYjOTsmIzk7JiM5OyYjOTsmIzk7YzQuMTQzLDAsNy41LTMuMzU4LDcuNS03LjVWMzUuNDI2QzMwMy4yMzgsMzEuMjg0LDI5OS44OCwyNy45MjYsMjk1LjczOCwyNy45MjZ6IE0xOTIuNjU5LDI5MS45ODNoLTcyLjk0MSYjMTA7JiM5OyYjOTsmIzk7JiM5OyYjOTtjNi44ODktOC4xOCwxMC45OTYtMTcuMjYyLDEzLjExNy0yMi45NTVoNDYuNzA1QzE4MS42NjEsMjc0LjcyMSwxODUuNzcxLDI4My44MDIsMTkyLjY1OSwyOTEuOTgzeiBNMjg4LjIzOCwyNTQuMDI4SDI0LjE0JiMxMDsmIzk7JiM5OyYjOTsmIzk7JiM5O1Y0Mi45MjZoMjY0LjA5OFYyNTQuMDI4eiIvPiYjeGE7CQkJPC9nPiYjeGE7CQkJPGc+JiN4YTsJCQkJPHBhdGggZD0iTTMwNC44OTYsMzQ5LjI4MmMtMC4wMDYsMC0wLjAxMiwwLTAuMDIsMEg3LjQ5OWMtMi41MzEsMC00Ljg5Mi0xLjI3Ny02LjI3Ny0zLjM5NyYjMTA7JiM5OyYjOTsmIzk7JiM5OyYjOTtjLTEuMzg1LTIuMTE5LTEuNjA3LTQuNzk1LTAuNTkyLTcuMTE0bDkuMTQxLTIwLjg0OGMxLjE5NS0yLjcyNywzLjg5MS00LjQ4OCw2Ljg2OS00LjQ4OGgyNzkuMDk4JiMxMDsmIzk7JiM5OyYjOTsmIzk7JiM5O2MyLjk3NywwLDUuNjc0LDEuNzYyLDYuODY5LDQuNDg5bDguOTIyLDIwLjM1NWMwLjU1NSwxLjA0NiwwLjg2NywyLjIzNywwLjg2NywzLjUwMyYjMTA7JiM5OyYjOTsmIzk7JiM5OyYjOTtDMzEyLjM5NiwzNDUuOTI0LDMwOS4wMzgsMzQ5LjI4MiwzMDQuODk2LDM0OS4yODJ6IE0xOC45NzgsMzM0LjI4MkgyOTMuNGwtMi41NjQtNS44NDhIMjEuNTRMMTguOTc4LDMzNC4yODJ6Ii8+JiN4YTsJCQk8L2c+JiN4YTsJCTwvZz4mI3hhOwkJPGc+JiN4YTsJCQk8cGF0aCBkPSJNMzY5LjcwOCwzNDkuMjgyaC00Ny41MzljLTQuMTQzLDAtNy41LTMuMzU3LTcuNS03LjV2LTEwLjY0MWMwLTEyLjg4NCwxMy43MzQtMjIuOTc3LDMxLjI2Ny0yMi45NzcmIzEwOyYjOTsmIzk7JiM5OyYjOTtjMTcuNTM1LDAsMzEuMjcyLDEwLjA5MywzMS4yNzIsMjIuOTc3djEwLjY0MUMzNzcuMjA4LDM0NS45MjQsMzczLjg1MSwzNDkuMjgyLDM2OS43MDgsMzQ5LjI4MnogTTMyOS42NjksMzM0LjI4MmgzMi41Mzl2LTMuMTQxJiMxMDsmIzk7JiM5OyYjOTsmIzk7YzAtMy4xNzYtNi40OS03Ljk3Ny0xNi4yNzItNy45NzdjLTkuNzc5LDAtMTYuMjY3LDQuODAxLTE2LjI2Nyw3Ljk3N1YzMzQuMjgyeiIvPiYjeGE7CQk8L2c+JiN4YTsJPC9nPiYjeGE7PC9nPiYjeGE7PGc+JiN4YTs8L2c+JiN4YTs8Zz4mI3hhOzwvZz4mI3hhOzxnPiYjeGE7PC9nPiYjeGE7PGc+JiN4YTs8L2c+JiN4YTs8Zz4mI3hhOzwvZz4mI3hhOzxnPiYjeGE7PC9nPiYjeGE7PGc+JiN4YTs8L2c+JiN4YTs8Zz4mI3hhOzwvZz4mI3hhOzxnPiYjeGE7PC9nPiYjeGE7PGc+JiN4YTs8L2c+JiN4YTs8Zz4mI3hhOzwvZz4mI3hhOzxnPiYjeGE7PC9nPiYjeGE7PGc+JiN4YTs8L2c+JiN4YTs8Zz4mI3hhOzwvZz4mI3hhOzxnPiYjeGE7PC9nPiYjeGE7PC9zdmc+;" vertex="1" parent="1">
          <mxGeometry x="230" y="590" width="67" height="67" as="geometry" />
        </mxCell>
        <mxCell id="kM9c3XfcTf7oXuRK3fT3-25" value="" style="shape=image;verticalLabelPosition=bottom;labelBackgroundColor=default;verticalAlign=top;aspect=fixed;imageAspect=0;image=data:image/svg+xml,PHN2ZyB4bWxuczp4bGluaz0iaHR0cDovL3d3dy53My5vcmcvMTk5OS94bGluayIgeG1sbnM9Imh0dHA6Ly93d3cudzMub3JnLzIwMDAvc3ZnIiB4bWw6c3BhY2U9InByZXNlcnZlIiBzdHlsZT0iZW5hYmxlLWJhY2tncm91bmQ6bmV3IDAgMCAzNzcuMjA4IDM3Ny4yMDg7IiB2aWV3Qm94PSIwIDAgMzc3LjIwOCAzNzcuMjA4IiB5PSIwcHgiIHg9IjBweCIgaWQ9IkNhcGFfMSIgdmVyc2lvbj0iMS4xIj4mI3hhOzxnPiYjeGE7CTxnPiYjeGE7CQk8Zz4mI3hhOwkJCTxnPiYjeGE7CQkJCTxnPiYjeGE7CQkJCQk8cGF0aCBkPSJNMjcxLjcyNiwyMjAuMTlINDAuNjUyYy00LjE0MywwLTcuNS0zLjM1Ny03LjUtNy41VjU4LjY4MmMwLTQuMTQzLDMuMzU3LTcuNSw3LjUtNy41aDIzMS4wNzQmIzEwOyYjOTsmIzk7JiM5OyYjOTsmIzk7JiM5O2M0LjE0MywwLDcuNSwzLjM1Nyw3LjUsNy41VjIxMi42OUMyNzkuMjI2LDIxNi44MzMsMjc1Ljg2OCwyMjAuMTksMjcxLjcyNiwyMjAuMTl6IE00OC4xNTIsMjA1LjE5aDIxNi4wNzRWNjYuMTgySDQ4LjE1MiYjMTA7JiM5OyYjOTsmIzk7JiM5OyYjOTsmIzk7VjIwNS4xOXoiLz4mI3hhOwkJCQk8L2c+JiN4YTsJCQkJPHBhdGggZD0iTTI5NS43MzgsMjcuOTI2SDE2LjY0Yy00LjE0MywwLTcuNSwzLjM1Ny03LjUsNy41djIyNi4xMDJjMCw0LjE0MiwzLjM1Nyw3LjUsNy41LDcuNWg5OS45NjEmIzEwOyYjOTsmIzk7JiM5OyYjOTsmIzk7Yy0zLjY5MSw3Ljk0NS0xMC41MTgsMTguNzg0LTIxLjY2NCwyMy41NjFjLTMuMjczLDEuNDAyLTUuMTA5LDQuOTEzLTQuMzkzLDguNDAxYzAuNzE1LDMuNDg4LDMuNzg1LDUuOTkyLDcuMzQ2LDUuOTkyaDExNi41OTYmIzEwOyYjOTsmIzk7JiM5OyYjOTsmIzk7YzMuNTYxLDAsNi42MzEtMi41MDQsNy4zNDgtNS45OTJjMC43MTUtMy40ODgtMS4xMTktNi45OTktNC4zOTMtOC40MDFjLTExLjA2NC00Ljc0Mi0xNy45MTQtMTUuNjAyLTIxLjYzMy0yMy41NjFoOTkuOTMmIzEwOyYjOTsmIzk7JiM5OyYjOTsmIzk7YzQuMTQzLDAsNy41LTMuMzU4LDcuNS03LjVWMzUuNDI2QzMwMy4yMzgsMzEuMjg0LDI5OS44OCwyNy45MjYsMjk1LjczOCwyNy45MjZ6IE0xOTIuNjU5LDI5MS45ODNoLTcyLjk0MSYjMTA7JiM5OyYjOTsmIzk7JiM5OyYjOTtjNi44ODktOC4xOCwxMC45OTYtMTcuMjYyLDEzLjExNy0yMi45NTVoNDYuNzA1QzE4MS42NjEsMjc0LjcyMSwxODUuNzcxLDI4My44MDIsMTkyLjY1OSwyOTEuOTgzeiBNMjg4LjIzOCwyNTQuMDI4SDI0LjE0JiMxMDsmIzk7JiM5OyYjOTsmIzk7JiM5O1Y0Mi45MjZoMjY0LjA5OFYyNTQuMDI4eiIvPiYjeGE7CQkJPC9nPiYjeGE7CQkJPGc+JiN4YTsJCQkJPHBhdGggZD0iTTMwNC44OTYsMzQ5LjI4MmMtMC4wMDYsMC0wLjAxMiwwLTAuMDIsMEg3LjQ5OWMtMi41MzEsMC00Ljg5Mi0xLjI3Ny02LjI3Ny0zLjM5NyYjMTA7JiM5OyYjOTsmIzk7JiM5OyYjOTtjLTEuMzg1LTIuMTE5LTEuNjA3LTQuNzk1LTAuNTkyLTcuMTE0bDkuMTQxLTIwLjg0OGMxLjE5NS0yLjcyNywzLjg5MS00LjQ4OCw2Ljg2OS00LjQ4OGgyNzkuMDk4JiMxMDsmIzk7JiM5OyYjOTsmIzk7JiM5O2MyLjk3NywwLDUuNjc0LDEuNzYyLDYuODY5LDQuNDg5bDguOTIyLDIwLjM1NWMwLjU1NSwxLjA0NiwwLjg2NywyLjIzNywwLjg2NywzLjUwMyYjMTA7JiM5OyYjOTsmIzk7JiM5OyYjOTtDMzEyLjM5NiwzNDUuOTI0LDMwOS4wMzgsMzQ5LjI4MiwzMDQuODk2LDM0OS4yODJ6IE0xOC45NzgsMzM0LjI4MkgyOTMuNGwtMi41NjQtNS44NDhIMjEuNTRMMTguOTc4LDMzNC4yODJ6Ii8+JiN4YTsJCQk8L2c+JiN4YTsJCTwvZz4mI3hhOwkJPGc+JiN4YTsJCQk8cGF0aCBkPSJNMzY5LjcwOCwzNDkuMjgyaC00Ny41MzljLTQuMTQzLDAtNy41LTMuMzU3LTcuNS03LjV2LTEwLjY0MWMwLTEyLjg4NCwxMy43MzQtMjIuOTc3LDMxLjI2Ny0yMi45NzcmIzEwOyYjOTsmIzk7JiM5OyYjOTtjMTcuNTM1LDAsMzEuMjcyLDEwLjA5MywzMS4yNzIsMjIuOTc3djEwLjY0MUMzNzcuMjA4LDM0NS45MjQsMzczLjg1MSwzNDkuMjgyLDM2OS43MDgsMzQ5LjI4MnogTTMyOS42NjksMzM0LjI4MmgzMi41Mzl2LTMuMTQxJiMxMDsmIzk7JiM5OyYjOTsmIzk7YzAtMy4xNzYtNi40OS03Ljk3Ny0xNi4yNzItNy45NzdjLTkuNzc5LDAtMTYuMjY3LDQuODAxLTE2LjI2Nyw3Ljk3N1YzMzQuMjgyeiIvPiYjeGE7CQk8L2c+JiN4YTsJPC9nPiYjeGE7PC9nPiYjeGE7PGc+JiN4YTs8L2c+JiN4YTs8Zz4mI3hhOzwvZz4mI3hhOzxnPiYjeGE7PC9nPiYjeGE7PGc+JiN4YTs8L2c+JiN4YTs8Zz4mI3hhOzwvZz4mI3hhOzxnPiYjeGE7PC9nPiYjeGE7PGc+JiN4YTs8L2c+JiN4YTs8Zz4mI3hhOzwvZz4mI3hhOzxnPiYjeGE7PC9nPiYjeGE7PGc+JiN4YTs8L2c+JiN4YTs8Zz4mI3hhOzwvZz4mI3hhOzxnPiYjeGE7PC9nPiYjeGE7PGc+JiN4YTs8L2c+JiN4YTs8Zz4mI3hhOzwvZz4mI3hhOzxnPiYjeGE7PC9nPiYjeGE7PC9zdmc+;" vertex="1" parent="1">
          <mxGeometry x="480" y="760" width="67" height="67" as="geometry" />
        </mxCell>
        <mxCell id="kM9c3XfcTf7oXuRK3fT3-26" value="" style="shape=image;verticalLabelPosition=bottom;labelBackgroundColor=default;verticalAlign=top;aspect=fixed;imageAspect=0;image=data:image/svg+xml,PHN2ZyB4bWxuczp4bGluaz0iaHR0cDovL3d3dy53My5vcmcvMTk5OS94bGluayIgeG1sbnM9Imh0dHA6Ly93d3cudzMub3JnLzIwMDAvc3ZnIiB4bWw6c3BhY2U9InByZXNlcnZlIiBzdHlsZT0iZW5hYmxlLWJhY2tncm91bmQ6bmV3IDAgMCAzNzcuMjA4IDM3Ny4yMDg7IiB2aWV3Qm94PSIwIDAgMzc3LjIwOCAzNzcuMjA4IiB5PSIwcHgiIHg9IjBweCIgaWQ9IkNhcGFfMSIgdmVyc2lvbj0iMS4xIj4mI3hhOzxnPiYjeGE7CTxnPiYjeGE7CQk8Zz4mI3hhOwkJCTxnPiYjeGE7CQkJCTxnPiYjeGE7CQkJCQk8cGF0aCBkPSJNMjcxLjcyNiwyMjAuMTlINDAuNjUyYy00LjE0MywwLTcuNS0zLjM1Ny03LjUtNy41VjU4LjY4MmMwLTQuMTQzLDMuMzU3LTcuNSw3LjUtNy41aDIzMS4wNzQmIzEwOyYjOTsmIzk7JiM5OyYjOTsmIzk7JiM5O2M0LjE0MywwLDcuNSwzLjM1Nyw3LjUsNy41VjIxMi42OUMyNzkuMjI2LDIxNi44MzMsMjc1Ljg2OCwyMjAuMTksMjcxLjcyNiwyMjAuMTl6IE00OC4xNTIsMjA1LjE5aDIxNi4wNzRWNjYuMTgySDQ4LjE1MiYjMTA7JiM5OyYjOTsmIzk7JiM5OyYjOTsmIzk7VjIwNS4xOXoiLz4mI3hhOwkJCQk8L2c+JiN4YTsJCQkJPHBhdGggZD0iTTI5NS43MzgsMjcuOTI2SDE2LjY0Yy00LjE0MywwLTcuNSwzLjM1Ny03LjUsNy41djIyNi4xMDJjMCw0LjE0MiwzLjM1Nyw3LjUsNy41LDcuNWg5OS45NjEmIzEwOyYjOTsmIzk7JiM5OyYjOTsmIzk7Yy0zLjY5MSw3Ljk0NS0xMC41MTgsMTguNzg0LTIxLjY2NCwyMy41NjFjLTMuMjczLDEuNDAyLTUuMTA5LDQuOTEzLTQuMzkzLDguNDAxYzAuNzE1LDMuNDg4LDMuNzg1LDUuOTkyLDcuMzQ2LDUuOTkyaDExNi41OTYmIzEwOyYjOTsmIzk7JiM5OyYjOTsmIzk7YzMuNTYxLDAsNi42MzEtMi41MDQsNy4zNDgtNS45OTJjMC43MTUtMy40ODgtMS4xMTktNi45OTktNC4zOTMtOC40MDFjLTExLjA2NC00Ljc0Mi0xNy45MTQtMTUuNjAyLTIxLjYzMy0yMy41NjFoOTkuOTMmIzEwOyYjOTsmIzk7JiM5OyYjOTsmIzk7YzQuMTQzLDAsNy41LTMuMzU4LDcuNS03LjVWMzUuNDI2QzMwMy4yMzgsMzEuMjg0LDI5OS44OCwyNy45MjYsMjk1LjczOCwyNy45MjZ6IE0xOTIuNjU5LDI5MS45ODNoLTcyLjk0MSYjMTA7JiM5OyYjOTsmIzk7JiM5OyYjOTtjNi44ODktOC4xOCwxMC45OTYtMTcuMjYyLDEzLjExNy0yMi45NTVoNDYuNzA1QzE4MS42NjEsMjc0LjcyMSwxODUuNzcxLDI4My44MDIsMTkyLjY1OSwyOTEuOTgzeiBNMjg4LjIzOCwyNTQuMDI4SDI0LjE0JiMxMDsmIzk7JiM5OyYjOTsmIzk7JiM5O1Y0Mi45MjZoMjY0LjA5OFYyNTQuMDI4eiIvPiYjeGE7CQkJPC9nPiYjeGE7CQkJPGc+JiN4YTsJCQkJPHBhdGggZD0iTTMwNC44OTYsMzQ5LjI4MmMtMC4wMDYsMC0wLjAxMiwwLTAuMDIsMEg3LjQ5OWMtMi41MzEsMC00Ljg5Mi0xLjI3Ny02LjI3Ny0zLjM5NyYjMTA7JiM5OyYjOTsmIzk7JiM5OyYjOTtjLTEuMzg1LTIuMTE5LTEuNjA3LTQuNzk1LTAuNTkyLTcuMTE0bDkuMTQxLTIwLjg0OGMxLjE5NS0yLjcyNywzLjg5MS00LjQ4OCw2Ljg2OS00LjQ4OGgyNzkuMDk4JiMxMDsmIzk7JiM5OyYjOTsmIzk7JiM5O2MyLjk3NywwLDUuNjc0LDEuNzYyLDYuODY5LDQuNDg5bDguOTIyLDIwLjM1NWMwLjU1NSwxLjA0NiwwLjg2NywyLjIzNywwLjg2NywzLjUwMyYjMTA7JiM5OyYjOTsmIzk7JiM5OyYjOTtDMzEyLjM5NiwzNDUuOTI0LDMwOS4wMzgsMzQ5LjI4MiwzMDQuODk2LDM0OS4yODJ6IE0xOC45NzgsMzM0LjI4MkgyOTMuNGwtMi41NjQtNS44NDhIMjEuNTRMMTguOTc4LDMzNC4yODJ6Ii8+JiN4YTsJCQk8L2c+JiN4YTsJCTwvZz4mI3hhOwkJPGc+JiN4YTsJCQk8cGF0aCBkPSJNMzY5LjcwOCwzNDkuMjgyaC00Ny41MzljLTQuMTQzLDAtNy41LTMuMzU3LTcuNS03LjV2LTEwLjY0MWMwLTEyLjg4NCwxMy43MzQtMjIuOTc3LDMxLjI2Ny0yMi45NzcmIzEwOyYjOTsmIzk7JiM5OyYjOTtjMTcuNTM1LDAsMzEuMjcyLDEwLjA5MywzMS4yNzIsMjIuOTc3djEwLjY0MUMzNzcuMjA4LDM0NS45MjQsMzczLjg1MSwzNDkuMjgyLDM2OS43MDgsMzQ5LjI4MnogTTMyOS42NjksMzM0LjI4MmgzMi41Mzl2LTMuMTQxJiMxMDsmIzk7JiM5OyYjOTsmIzk7YzAtMy4xNzYtNi40OS03Ljk3Ny0xNi4yNzItNy45NzdjLTkuNzc5LDAtMTYuMjY3LDQuODAxLTE2LjI2Nyw3Ljk3N1YzMzQuMjgyeiIvPiYjeGE7CQk8L2c+JiN4YTsJPC9nPiYjeGE7PC9nPiYjeGE7PGc+JiN4YTs8L2c+JiN4YTs8Zz4mI3hhOzwvZz4mI3hhOzxnPiYjeGE7PC9nPiYjeGE7PGc+JiN4YTs8L2c+JiN4YTs8Zz4mI3hhOzwvZz4mI3hhOzxnPiYjeGE7PC9nPiYjeGE7PGc+JiN4YTs8L2c+JiN4YTs8Zz4mI3hhOzwvZz4mI3hhOzxnPiYjeGE7PC9nPiYjeGE7PGc+JiN4YTs8L2c+JiN4YTs8Zz4mI3hhOzwvZz4mI3hhOzxnPiYjeGE7PC9nPiYjeGE7PGc+JiN4YTs8L2c+JiN4YTs8Zz4mI3hhOzwvZz4mI3hhOzxnPiYjeGE7PC9nPiYjeGE7PC9zdmc+;" vertex="1" parent="1">
          <mxGeometry x="388" y="533" width="67" height="67" as="geometry" />
        </mxCell>
        <mxCell id="kM9c3XfcTf7oXuRK3fT3-27" value="" style="shape=image;verticalLabelPosition=bottom;labelBackgroundColor=default;verticalAlign=top;aspect=fixed;imageAspect=0;image=data:image/svg+xml,PHN2ZyB4bWxuczp4bGluaz0iaHR0cDovL3d3dy53My5vcmcvMTk5OS94bGluayIgeG1sbnM9Imh0dHA6Ly93d3cudzMub3JnLzIwMDAvc3ZnIiB4bWw6c3BhY2U9InByZXNlcnZlIiBzdHlsZT0iZW5hYmxlLWJhY2tncm91bmQ6bmV3IDAgMCAzNzcuMjA4IDM3Ny4yMDg7IiB2aWV3Qm94PSIwIDAgMzc3LjIwOCAzNzcuMjA4IiB5PSIwcHgiIHg9IjBweCIgaWQ9IkNhcGFfMSIgdmVyc2lvbj0iMS4xIj4mI3hhOzxnPiYjeGE7CTxnPiYjeGE7CQk8Zz4mI3hhOwkJCTxnPiYjeGE7CQkJCTxnPiYjeGE7CQkJCQk8cGF0aCBkPSJNMjcxLjcyNiwyMjAuMTlINDAuNjUyYy00LjE0MywwLTcuNS0zLjM1Ny03LjUtNy41VjU4LjY4MmMwLTQuMTQzLDMuMzU3LTcuNSw3LjUtNy41aDIzMS4wNzQmIzEwOyYjOTsmIzk7JiM5OyYjOTsmIzk7JiM5O2M0LjE0MywwLDcuNSwzLjM1Nyw3LjUsNy41VjIxMi42OUMyNzkuMjI2LDIxNi44MzMsMjc1Ljg2OCwyMjAuMTksMjcxLjcyNiwyMjAuMTl6IE00OC4xNTIsMjA1LjE5aDIxNi4wNzRWNjYuMTgySDQ4LjE1MiYjMTA7JiM5OyYjOTsmIzk7JiM5OyYjOTsmIzk7VjIwNS4xOXoiLz4mI3hhOwkJCQk8L2c+JiN4YTsJCQkJPHBhdGggZD0iTTI5NS43MzgsMjcuOTI2SDE2LjY0Yy00LjE0MywwLTcuNSwzLjM1Ny03LjUsNy41djIyNi4xMDJjMCw0LjE0MiwzLjM1Nyw3LjUsNy41LDcuNWg5OS45NjEmIzEwOyYjOTsmIzk7JiM5OyYjOTsmIzk7Yy0zLjY5MSw3Ljk0NS0xMC41MTgsMTguNzg0LTIxLjY2NCwyMy41NjFjLTMuMjczLDEuNDAyLTUuMTA5LDQuOTEzLTQuMzkzLDguNDAxYzAuNzE1LDMuNDg4LDMuNzg1LDUuOTkyLDcuMzQ2LDUuOTkyaDExNi41OTYmIzEwOyYjOTsmIzk7JiM5OyYjOTsmIzk7YzMuNTYxLDAsNi42MzEtMi41MDQsNy4zNDgtNS45OTJjMC43MTUtMy40ODgtMS4xMTktNi45OTktNC4zOTMtOC40MDFjLTExLjA2NC00Ljc0Mi0xNy45MTQtMTUuNjAyLTIxLjYzMy0yMy41NjFoOTkuOTMmIzEwOyYjOTsmIzk7JiM5OyYjOTsmIzk7YzQuMTQzLDAsNy41LTMuMzU4LDcuNS03LjVWMzUuNDI2QzMwMy4yMzgsMzEuMjg0LDI5OS44OCwyNy45MjYsMjk1LjczOCwyNy45MjZ6IE0xOTIuNjU5LDI5MS45ODNoLTcyLjk0MSYjMTA7JiM5OyYjOTsmIzk7JiM5OyYjOTtjNi44ODktOC4xOCwxMC45OTYtMTcuMjYyLDEzLjExNy0yMi45NTVoNDYuNzA1QzE4MS42NjEsMjc0LjcyMSwxODUuNzcxLDI4My44MDIsMTkyLjY1OSwyOTEuOTgzeiBNMjg4LjIzOCwyNTQuMDI4SDI0LjE0JiMxMDsmIzk7JiM5OyYjOTsmIzk7JiM5O1Y0Mi45MjZoMjY0LjA5OFYyNTQuMDI4eiIvPiYjeGE7CQkJPC9nPiYjeGE7CQkJPGc+JiN4YTsJCQkJPHBhdGggZD0iTTMwNC44OTYsMzQ5LjI4MmMtMC4wMDYsMC0wLjAxMiwwLTAuMDIsMEg3LjQ5OWMtMi41MzEsMC00Ljg5Mi0xLjI3Ny02LjI3Ny0zLjM5NyYjMTA7JiM5OyYjOTsmIzk7JiM5OyYjOTtjLTEuMzg1LTIuMTE5LTEuNjA3LTQuNzk1LTAuNTkyLTcuMTE0bDkuMTQxLTIwLjg0OGMxLjE5NS0yLjcyNywzLjg5MS00LjQ4OCw2Ljg2OS00LjQ4OGgyNzkuMDk4JiMxMDsmIzk7JiM5OyYjOTsmIzk7JiM5O2MyLjk3NywwLDUuNjc0LDEuNzYyLDYuODY5LDQuNDg5bDguOTIyLDIwLjM1NWMwLjU1NSwxLjA0NiwwLjg2NywyLjIzNywwLjg2NywzLjUwMyYjMTA7JiM5OyYjOTsmIzk7JiM5OyYjOTtDMzEyLjM5NiwzNDUuOTI0LDMwOS4wMzgsMzQ5LjI4MiwzMDQuODk2LDM0OS4yODJ6IE0xOC45NzgsMzM0LjI4MkgyOTMuNGwtMi41NjQtNS44NDhIMjEuNTRMMTguOTc4LDMzNC4yODJ6Ii8+JiN4YTsJCQk8L2c+JiN4YTsJCTwvZz4mI3hhOwkJPGc+JiN4YTsJCQk8cGF0aCBkPSJNMzY5LjcwOCwzNDkuMjgyaC00Ny41MzljLTQuMTQzLDAtNy41LTMuMzU3LTcuNS03LjV2LTEwLjY0MWMwLTEyLjg4NCwxMy43MzQtMjIuOTc3LDMxLjI2Ny0yMi45NzcmIzEwOyYjOTsmIzk7JiM5OyYjOTtjMTcuNTM1LDAsMzEuMjcyLDEwLjA5MywzMS4yNzIsMjIuOTc3djEwLjY0MUMzNzcuMjA4LDM0NS45MjQsMzczLjg1MSwzNDkuMjgyLDM2OS43MDgsMzQ5LjI4MnogTTMyOS42NjksMzM0LjI4MmgzMi41Mzl2LTMuMTQxJiMxMDsmIzk7JiM5OyYjOTsmIzk7YzAtMy4xNzYtNi40OS03Ljk3Ny0xNi4yNzItNy45NzdjLTkuNzc5LDAtMTYuMjY3LDQuODAxLTE2LjI2Nyw3Ljk3N1YzMzQuMjgyeiIvPiYjeGE7CQk8L2c+JiN4YTsJPC9nPiYjeGE7PC9nPiYjeGE7PGc+JiN4YTs8L2c+JiN4YTs8Zz4mI3hhOzwvZz4mI3hhOzxnPiYjeGE7PC9nPiYjeGE7PGc+JiN4YTs8L2c+JiN4YTs8Zz4mI3hhOzwvZz4mI3hhOzxnPiYjeGE7PC9nPiYjeGE7PGc+JiN4YTs8L2c+JiN4YTs8Zz4mI3hhOzwvZz4mI3hhOzxnPiYjeGE7PC9nPiYjeGE7PGc+JiN4YTs8L2c+JiN4YTs8Zz4mI3hhOzwvZz4mI3hhOzxnPiYjeGE7PC9nPiYjeGE7PGc+JiN4YTs8L2c+JiN4YTs8Zz4mI3hhOzwvZz4mI3hhOzxnPiYjeGE7PC9nPiYjeGE7PC9zdmc+;" vertex="1" parent="1">
          <mxGeometry x="518" y="676.5" width="67" height="67" as="geometry" />
        </mxCell>
        <mxCell id="kM9c3XfcTf7oXuRK3fT3-28" value="" style="shape=image;verticalLabelPosition=bottom;labelBackgroundColor=default;verticalAlign=top;aspect=fixed;imageAspect=0;image=data:image/svg+xml,PHN2ZyB4bWxuczp4bGluaz0iaHR0cDovL3d3dy53My5vcmcvMTk5OS94bGluayIgeG1sbnM9Imh0dHA6Ly93d3cudzMub3JnLzIwMDAvc3ZnIiB4bWw6c3BhY2U9InByZXNlcnZlIiBzdHlsZT0iZW5hYmxlLWJhY2tncm91bmQ6bmV3IDAgMCAzNzcuMjA4IDM3Ny4yMDg7IiB2aWV3Qm94PSIwIDAgMzc3LjIwOCAzNzcuMjA4IiB5PSIwcHgiIHg9IjBweCIgaWQ9IkNhcGFfMSIgdmVyc2lvbj0iMS4xIj4mI3hhOzxnPiYjeGE7CTxnPiYjeGE7CQk8Zz4mI3hhOwkJCTxnPiYjeGE7CQkJCTxnPiYjeGE7CQkJCQk8cGF0aCBkPSJNMjcxLjcyNiwyMjAuMTlINDAuNjUyYy00LjE0MywwLTcuNS0zLjM1Ny03LjUtNy41VjU4LjY4MmMwLTQuMTQzLDMuMzU3LTcuNSw3LjUtNy41aDIzMS4wNzQmIzEwOyYjOTsmIzk7JiM5OyYjOTsmIzk7JiM5O2M0LjE0MywwLDcuNSwzLjM1Nyw3LjUsNy41VjIxMi42OUMyNzkuMjI2LDIxNi44MzMsMjc1Ljg2OCwyMjAuMTksMjcxLjcyNiwyMjAuMTl6IE00OC4xNTIsMjA1LjE5aDIxNi4wNzRWNjYuMTgySDQ4LjE1MiYjMTA7JiM5OyYjOTsmIzk7JiM5OyYjOTsmIzk7VjIwNS4xOXoiLz4mI3hhOwkJCQk8L2c+JiN4YTsJCQkJPHBhdGggZD0iTTI5NS43MzgsMjcuOTI2SDE2LjY0Yy00LjE0MywwLTcuNSwzLjM1Ny03LjUsNy41djIyNi4xMDJjMCw0LjE0MiwzLjM1Nyw3LjUsNy41LDcuNWg5OS45NjEmIzEwOyYjOTsmIzk7JiM5OyYjOTsmIzk7Yy0zLjY5MSw3Ljk0NS0xMC41MTgsMTguNzg0LTIxLjY2NCwyMy41NjFjLTMuMjczLDEuNDAyLTUuMTA5LDQuOTEzLTQuMzkzLDguNDAxYzAuNzE1LDMuNDg4LDMuNzg1LDUuOTkyLDcuMzQ2LDUuOTkyaDExNi41OTYmIzEwOyYjOTsmIzk7JiM5OyYjOTsmIzk7YzMuNTYxLDAsNi42MzEtMi41MDQsNy4zNDgtNS45OTJjMC43MTUtMy40ODgtMS4xMTktNi45OTktNC4zOTMtOC40MDFjLTExLjA2NC00Ljc0Mi0xNy45MTQtMTUuNjAyLTIxLjYzMy0yMy41NjFoOTkuOTMmIzEwOyYjOTsmIzk7JiM5OyYjOTsmIzk7YzQuMTQzLDAsNy41LTMuMzU4LDcuNS03LjVWMzUuNDI2QzMwMy4yMzgsMzEuMjg0LDI5OS44OCwyNy45MjYsMjk1LjczOCwyNy45MjZ6IE0xOTIuNjU5LDI5MS45ODNoLTcyLjk0MSYjMTA7JiM5OyYjOTsmIzk7JiM5OyYjOTtjNi44ODktOC4xOCwxMC45OTYtMTcuMjYyLDEzLjExNy0yMi45NTVoNDYuNzA1QzE4MS42NjEsMjc0LjcyMSwxODUuNzcxLDI4My44MDIsMTkyLjY1OSwyOTEuOTgzeiBNMjg4LjIzOCwyNTQuMDI4SDI0LjE0JiMxMDsmIzk7JiM5OyYjOTsmIzk7JiM5O1Y0Mi45MjZoMjY0LjA5OFYyNTQuMDI4eiIvPiYjeGE7CQkJPC9nPiYjeGE7CQkJPGc+JiN4YTsJCQkJPHBhdGggZD0iTTMwNC44OTYsMzQ5LjI4MmMtMC4wMDYsMC0wLjAxMiwwLTAuMDIsMEg3LjQ5OWMtMi41MzEsMC00Ljg5Mi0xLjI3Ny02LjI3Ny0zLjM5NyYjMTA7JiM5OyYjOTsmIzk7JiM5OyYjOTtjLTEuMzg1LTIuMTE5LTEuNjA3LTQuNzk1LTAuNTkyLTcuMTE0bDkuMTQxLTIwLjg0OGMxLjE5NS0yLjcyNywzLjg5MS00LjQ4OCw2Ljg2OS00LjQ4OGgyNzkuMDk4JiMxMDsmIzk7JiM5OyYjOTsmIzk7JiM5O2MyLjk3NywwLDUuNjc0LDEuNzYyLDYuODY5LDQuNDg5bDguOTIyLDIwLjM1NWMwLjU1NSwxLjA0NiwwLjg2NywyLjIzNywwLjg2NywzLjUwMyYjMTA7JiM5OyYjOTsmIzk7JiM5OyYjOTtDMzEyLjM5NiwzNDUuOTI0LDMwOS4wMzgsMzQ5LjI4MiwzMDQuODk2LDM0OS4yODJ6IE0xOC45NzgsMzM0LjI4MkgyOTMuNGwtMi41NjQtNS44NDhIMjEuNTRMMTguOTc4LDMzNC4yODJ6Ii8+JiN4YTsJCQk8L2c+JiN4YTsJCTwvZz4mI3hhOwkJPGc+JiN4YTsJCQk8cGF0aCBkPSJNMzY5LjcwOCwzNDkuMjgyaC00Ny41MzljLTQuMTQzLDAtNy41LTMuMzU3LTcuNS03LjV2LTEwLjY0MWMwLTEyLjg4NCwxMy43MzQtMjIuOTc3LDMxLjI2Ny0yMi45NzcmIzEwOyYjOTsmIzk7JiM5OyYjOTtjMTcuNTM1LDAsMzEuMjcyLDEwLjA5MywzMS4yNzIsMjIuOTc3djEwLjY0MUMzNzcuMjA4LDM0NS45MjQsMzczLjg1MSwzNDkuMjgyLDM2OS43MDgsMzQ5LjI4MnogTTMyOS42NjksMzM0LjI4MmgzMi41Mzl2LTMuMTQxJiMxMDsmIzk7JiM5OyYjOTsmIzk7YzAtMy4xNzYtNi40OS03Ljk3Ny0xNi4yNzItNy45NzdjLTkuNzc5LDAtMTYuMjY3LDQuODAxLTE2LjI2Nyw3Ljk3N1YzMzQuMjgyeiIvPiYjeGE7CQk8L2c+JiN4YTsJPC9nPiYjeGE7PC9nPiYjeGE7PGc+JiN4YTs8L2c+JiN4YTs8Zz4mI3hhOzwvZz4mI3hhOzxnPiYjeGE7PC9nPiYjeGE7PGc+JiN4YTs8L2c+JiN4YTs8Zz4mI3hhOzwvZz4mI3hhOzxnPiYjeGE7PC9nPiYjeGE7PGc+JiN4YTs8L2c+JiN4YTs8Zz4mI3hhOzwvZz4mI3hhOzxnPiYjeGE7PC9nPiYjeGE7PGc+JiN4YTs8L2c+JiN4YTs8Zz4mI3hhOzwvZz4mI3hhOzxnPiYjeGE7PC9nPiYjeGE7PGc+JiN4YTs8L2c+JiN4YTs8Zz4mI3hhOzwvZz4mI3hhOzxnPiYjeGE7PC9nPiYjeGE7PC9zdmc+;" vertex="1" parent="1">
          <mxGeometry x="490" y="580" width="67" height="67" as="geometry" />
        </mxCell>
        <mxCell id="kM9c3XfcTf7oXuRK3fT3-29" value="" style="shape=image;verticalLabelPosition=bottom;labelBackgroundColor=default;verticalAlign=top;aspect=fixed;imageAspect=0;image=data:image/svg+xml,PHN2ZyB4bWxuczp4bGluaz0iaHR0cDovL3d3dy53My5vcmcvMTk5OS94bGluayIgeG1sbnM9Imh0dHA6Ly93d3cudzMub3JnLzIwMDAvc3ZnIiB4bWw6c3BhY2U9InByZXNlcnZlIiBzdHlsZT0iZW5hYmxlLWJhY2tncm91bmQ6bmV3IDAgMCAzNzcuMjA4IDM3Ny4yMDg7IiB2aWV3Qm94PSIwIDAgMzc3LjIwOCAzNzcuMjA4IiB5PSIwcHgiIHg9IjBweCIgaWQ9IkNhcGFfMSIgdmVyc2lvbj0iMS4xIj4mI3hhOzxnPiYjeGE7CTxnPiYjeGE7CQk8Zz4mI3hhOwkJCTxnPiYjeGE7CQkJCTxnPiYjeGE7CQkJCQk8cGF0aCBkPSJNMjcxLjcyNiwyMjAuMTlINDAuNjUyYy00LjE0MywwLTcuNS0zLjM1Ny03LjUtNy41VjU4LjY4MmMwLTQuMTQzLDMuMzU3LTcuNSw3LjUtNy41aDIzMS4wNzQmIzEwOyYjOTsmIzk7JiM5OyYjOTsmIzk7JiM5O2M0LjE0MywwLDcuNSwzLjM1Nyw3LjUsNy41VjIxMi42OUMyNzkuMjI2LDIxNi44MzMsMjc1Ljg2OCwyMjAuMTksMjcxLjcyNiwyMjAuMTl6IE00OC4xNTIsMjA1LjE5aDIxNi4wNzRWNjYuMTgySDQ4LjE1MiYjMTA7JiM5OyYjOTsmIzk7JiM5OyYjOTsmIzk7VjIwNS4xOXoiLz4mI3hhOwkJCQk8L2c+JiN4YTsJCQkJPHBhdGggZD0iTTI5NS43MzgsMjcuOTI2SDE2LjY0Yy00LjE0MywwLTcuNSwzLjM1Ny03LjUsNy41djIyNi4xMDJjMCw0LjE0MiwzLjM1Nyw3LjUsNy41LDcuNWg5OS45NjEmIzEwOyYjOTsmIzk7JiM5OyYjOTsmIzk7Yy0zLjY5MSw3Ljk0NS0xMC41MTgsMTguNzg0LTIxLjY2NCwyMy41NjFjLTMuMjczLDEuNDAyLTUuMTA5LDQuOTEzLTQuMzkzLDguNDAxYzAuNzE1LDMuNDg4LDMuNzg1LDUuOTkyLDcuMzQ2LDUuOTkyaDExNi41OTYmIzEwOyYjOTsmIzk7JiM5OyYjOTsmIzk7YzMuNTYxLDAsNi42MzEtMi41MDQsNy4zNDgtNS45OTJjMC43MTUtMy40ODgtMS4xMTktNi45OTktNC4zOTMtOC40MDFjLTExLjA2NC00Ljc0Mi0xNy45MTQtMTUuNjAyLTIxLjYzMy0yMy41NjFoOTkuOTMmIzEwOyYjOTsmIzk7JiM5OyYjOTsmIzk7YzQuMTQzLDAsNy41LTMuMzU4LDcuNS03LjVWMzUuNDI2QzMwMy4yMzgsMzEuMjg0LDI5OS44OCwyNy45MjYsMjk1LjczOCwyNy45MjZ6IE0xOTIuNjU5LDI5MS45ODNoLTcyLjk0MSYjMTA7JiM5OyYjOTsmIzk7JiM5OyYjOTtjNi44ODktOC4xOCwxMC45OTYtMTcuMjYyLDEzLjExNy0yMi45NTVoNDYuNzA1QzE4MS42NjEsMjc0LjcyMSwxODUuNzcxLDI4My44MDIsMTkyLjY1OSwyOTEuOTgzeiBNMjg4LjIzOCwyNTQuMDI4SDI0LjE0JiMxMDsmIzk7JiM5OyYjOTsmIzk7JiM5O1Y0Mi45MjZoMjY0LjA5OFYyNTQuMDI4eiIvPiYjeGE7CQkJPC9nPiYjeGE7CQkJPGc+JiN4YTsJCQkJPHBhdGggZD0iTTMwNC44OTYsMzQ5LjI4MmMtMC4wMDYsMC0wLjAxMiwwLTAuMDIsMEg3LjQ5OWMtMi41MzEsMC00Ljg5Mi0xLjI3Ny02LjI3Ny0zLjM5NyYjMTA7JiM5OyYjOTsmIzk7JiM5OyYjOTtjLTEuMzg1LTIuMTE5LTEuNjA3LTQuNzk1LTAuNTkyLTcuMTE0bDkuMTQxLTIwLjg0OGMxLjE5NS0yLjcyNywzLjg5MS00LjQ4OCw2Ljg2OS00LjQ4OGgyNzkuMDk4JiMxMDsmIzk7JiM5OyYjOTsmIzk7JiM5O2MyLjk3NywwLDUuNjc0LDEuNzYyLDYuODY5LDQuNDg5bDguOTIyLDIwLjM1NWMwLjU1NSwxLjA0NiwwLjg2NywyLjIzNywwLjg2NywzLjUwMyYjMTA7JiM5OyYjOTsmIzk7JiM5OyYjOTtDMzEyLjM5NiwzNDUuOTI0LDMwOS4wMzgsMzQ5LjI4MiwzMDQuODk2LDM0OS4yODJ6IE0xOC45NzgsMzM0LjI4MkgyOTMuNGwtMi41NjQtNS44NDhIMjEuNTRMMTguOTc4LDMzNC4yODJ6Ii8+JiN4YTsJCQk8L2c+JiN4YTsJCTwvZz4mI3hhOwkJPGc+JiN4YTsJCQk8cGF0aCBkPSJNMzY5LjcwOCwzNDkuMjgyaC00Ny41MzljLTQuMTQzLDAtNy41LTMuMzU3LTcuNS03LjV2LTEwLjY0MWMwLTEyLjg4NCwxMy43MzQtMjIuOTc3LDMxLjI2Ny0yMi45NzcmIzEwOyYjOTsmIzk7JiM5OyYjOTtjMTcuNTM1LDAsMzEuMjcyLDEwLjA5MywzMS4yNzIsMjIuOTc3djEwLjY0MUMzNzcuMjA4LDM0NS45MjQsMzczLjg1MSwzNDkuMjgyLDM2OS43MDgsMzQ5LjI4MnogTTMyOS42NjksMzM0LjI4MmgzMi41Mzl2LTMuMTQxJiMxMDsmIzk7JiM5OyYjOTsmIzk7YzAtMy4xNzYtNi40OS03Ljk3Ny0xNi4yNzItNy45NzdjLTkuNzc5LDAtMTYuMjY3LDQuODAxLTE2LjI2Nyw3Ljk3N1YzMzQuMjgyeiIvPiYjeGE7CQk8L2c+JiN4YTsJPC9nPiYjeGE7PC9nPiYjeGE7PGc+JiN4YTs8L2c+JiN4YTs8Zz4mI3hhOzwvZz4mI3hhOzxnPiYjeGE7PC9nPiYjeGE7PGc+JiN4YTs8L2c+JiN4YTs8Zz4mI3hhOzwvZz4mI3hhOzxnPiYjeGE7PC9nPiYjeGE7PGc+JiN4YTs8L2c+JiN4YTs8Zz4mI3hhOzwvZz4mI3hhOzxnPiYjeGE7PC9nPiYjeGE7PGc+JiN4YTs8L2c+JiN4YTs8Zz4mI3hhOzwvZz4mI3hhOzxnPiYjeGE7PC9nPiYjeGE7PGc+JiN4YTs8L2c+JiN4YTs8Zz4mI3hhOzwvZz4mI3hhOzxnPiYjeGE7PC9nPiYjeGE7PC9zdmc+;" vertex="1" parent="1">
          <mxGeometry x="213" y="780" width="67" height="67" as="geometry" />
        </mxCell>
        <mxCell id="kM9c3XfcTf7oXuRK3fT3-30" value="" style="endArrow=classic;html=1;rounded=0;exitX=1;exitY=0;exitDx=0;exitDy=0;" edge="1" parent="1" source="kM9c3XfcTf7oXuRK3fT3-29" target="kM9c3XfcTf7oXuRK3fT3-22">
          <mxGeometry relative="1" as="geometry">
            <mxPoint x="317" y="780" as="sourcePoint" />
            <mxPoint x="417" y="780" as="targetPoint" />
          </mxGeometry>
        </mxCell>
        <mxCell id="kM9c3XfcTf7oXuRK3fT3-31" value="ARP&lt;br&gt;request" style="edgeLabel;resizable=0;html=1;align=center;verticalAlign=middle;" connectable="0" vertex="1" parent="kM9c3XfcTf7oXuRK3fT3-30">
          <mxGeometry relative="1" as="geometry" />
        </mxCell>
        <mxCell id="kM9c3XfcTf7oXuRK3fT3-32" value="" style="endArrow=classic;html=1;rounded=0;exitX=1;exitY=0;exitDx=0;exitDy=0;" edge="1" parent="1" source="kM9c3XfcTf7oXuRK3fT3-29" target="kM9c3XfcTf7oXuRK3fT3-26">
          <mxGeometry relative="1" as="geometry">
            <mxPoint x="320" y="770" as="sourcePoint" />
            <mxPoint x="284.9520766773162" y="667" as="targetPoint" />
          </mxGeometry>
        </mxCell>
        <mxCell id="kM9c3XfcTf7oXuRK3fT3-33" value="ARP&lt;br&gt;request" style="edgeLabel;resizable=0;html=1;align=center;verticalAlign=middle;" connectable="0" vertex="1" parent="kM9c3XfcTf7oXuRK3fT3-32">
          <mxGeometry relative="1" as="geometry" />
        </mxCell>
        <mxCell id="kM9c3XfcTf7oXuRK3fT3-34" value="" style="endArrow=classic;html=1;rounded=0;exitX=1;exitY=0;exitDx=0;exitDy=0;entryX=0;entryY=0.5;entryDx=0;entryDy=0;" edge="1" parent="1" source="kM9c3XfcTf7oXuRK3fT3-29" target="kM9c3XfcTf7oXuRK3fT3-28">
          <mxGeometry relative="1" as="geometry">
            <mxPoint x="327" y="800" as="sourcePoint" />
            <mxPoint x="415.8366890380314" y="610" as="targetPoint" />
          </mxGeometry>
        </mxCell>
        <mxCell id="kM9c3XfcTf7oXuRK3fT3-35" value="ARP&lt;br&gt;request" style="edgeLabel;resizable=0;html=1;align=center;verticalAlign=middle;" connectable="0" vertex="1" parent="kM9c3XfcTf7oXuRK3fT3-34">
          <mxGeometry relative="1" as="geometry" />
        </mxCell>
        <mxCell id="kM9c3XfcTf7oXuRK3fT3-36" value="" style="endArrow=classic;html=1;rounded=0;exitX=1;exitY=0;exitDx=0;exitDy=0;entryX=0;entryY=0.25;entryDx=0;entryDy=0;" edge="1" parent="1" source="kM9c3XfcTf7oXuRK3fT3-29" target="kM9c3XfcTf7oXuRK3fT3-27">
          <mxGeometry relative="1" as="geometry">
            <mxPoint x="337" y="810" as="sourcePoint" />
            <mxPoint x="425.8366890380314" y="620" as="targetPoint" />
          </mxGeometry>
        </mxCell>
        <mxCell id="kM9c3XfcTf7oXuRK3fT3-37" value="ARP&lt;br&gt;request" style="edgeLabel;resizable=0;html=1;align=center;verticalAlign=middle;" connectable="0" vertex="1" parent="kM9c3XfcTf7oXuRK3fT3-36">
          <mxGeometry relative="1" as="geometry" />
        </mxCell>
        <mxCell id="kM9c3XfcTf7oXuRK3fT3-38" value="" style="endArrow=classic;html=1;rounded=0;exitX=1;exitY=0;exitDx=0;exitDy=0;entryX=0;entryY=0.75;entryDx=0;entryDy=0;" edge="1" parent="1" source="kM9c3XfcTf7oXuRK3fT3-29" target="kM9c3XfcTf7oXuRK3fT3-25">
          <mxGeometry relative="1" as="geometry">
            <mxPoint x="347" y="820" as="sourcePoint" />
            <mxPoint x="435.8366890380314" y="630" as="targetPoint" />
          </mxGeometry>
        </mxCell>
        <mxCell id="kM9c3XfcTf7oXuRK3fT3-39" value="ARP&lt;br&gt;request" style="edgeLabel;resizable=0;html=1;align=center;verticalAlign=middle;" connectable="0" vertex="1" parent="kM9c3XfcTf7oXuRK3fT3-38">
          <mxGeometry relative="1" as="geometry" />
        </mxCell>
        <mxCell id="kM9c3XfcTf7oXuRK3fT3-40" value="&lt;font style=&quot;font-size: 9px;&quot;&gt;who has&lt;br style=&quot;font-size: 9px;&quot;&gt;xxx.xxx.xxx.xxxx&lt;br style=&quot;font-size: 9px;&quot;&gt;ip?&lt;/font&gt;" style="shape=callout;whiteSpace=wrap;html=1;perimeter=calloutPerimeter;strokeWidth=2;flipH=1;" vertex="1" parent="1">
          <mxGeometry x="130" y="700" width="120" height="80" as="geometry" />
        </mxCell>
        <mxCell id="kM9c3XfcTf7oXuRK3fT3-41" value="" style="endArrow=classic;html=1;rounded=0;entryX=1;entryY=0.75;entryDx=0;entryDy=0;exitX=0;exitY=1;exitDx=0;exitDy=0;" edge="1" parent="1" source="kM9c3XfcTf7oXuRK3fT3-25" target="kM9c3XfcTf7oXuRK3fT3-29">
          <mxGeometry relative="1" as="geometry">
            <mxPoint x="440" y="820" as="sourcePoint" />
            <mxPoint x="455" y="837.25" as="targetPoint" />
          </mxGeometry>
        </mxCell>
        <mxCell id="kM9c3XfcTf7oXuRK3fT3-42" value="ARP&lt;br&gt;response" style="edgeLabel;resizable=0;html=1;align=center;verticalAlign=middle;" connectable="0" vertex="1" parent="kM9c3XfcTf7oXuRK3fT3-41">
          <mxGeometry relative="1" as="geometry" />
        </mxCell>
        <mxCell id="kM9c3XfcTf7oXuRK3fT3-43" value="&lt;font style=&quot;font-size: 9px;&quot;&gt;me!&lt;br style=&quot;font-size: 9px;&quot;&gt;my MAC address is XXX!&lt;br&gt;&lt;/font&gt;" style="shape=callout;whiteSpace=wrap;html=1;perimeter=calloutPerimeter;strokeWidth=2;flipH=0;flipV=1;" vertex="1" parent="1">
          <mxGeometry x="440" y="827" width="160" height="103" as="geometry" />
        </mxCell>
        <mxCell id="kM9c3XfcTf7oXuRK3fT3-44" value="SAME LAN GROUP" style="text;html=1;strokeColor=none;fillColor=none;align=center;verticalAlign=middle;whiteSpace=wrap;rounded=0;fontSize=14;" vertex="1" parent="1">
          <mxGeometry x="280" y="533" width="97" height="30" as="geometry" />
        </mxCell>
      </root>
    </mxGraphModel>
  </diagram>
</mxfile>
